# xmcd
# 
# Track frame offsets:
#     182
#     11455
#     25592
#     39420
#     50207
#     62192
#     74762
#     86045
#     97905
#     112847
#     125475
#     137850
#     150972
#     162412
# 
# Disc length: 2320
# 
# Revision: 2
# Processed by: cddbd v1.5.2PL0 Copyright (c) Steve Scherf et al.
# Submitted via: fre:ac v1.0.31
# 
DISCID=b6090e0e
DTITLE=Roots of Rhythm - Twist and Shout
DYEAR=1999
DGENRE=R&B
TTITLE0=The Isley Brothers - Twist and Shout
TTITLE1=Wilson Pickett - Mustang Sally
TTITLE2=Jackie Wilson - Baby Workout
TTITLE3=The Esquires - Get On Up
TTITLE4=The Temptations - Get Ready
TTITLE5=The Miracles - Mickey's Monkey
TTITLE6=Little Eva - The Loco Motion
TTITLE7=The Johnny Otis Show - Willie and the Hand Jive
TTITLE8=Rufus Thomas - Do the Funky Chicken
TTITLE9=Jimmy McCracklin  - The Walk
TTITLE10=The Capitols - Cool Jerk
TTITLE11=The Contours - Do You Love Me
TTITLE12=B.B. King - She's Dynamite
TTITLE13=The Mar-Keys - Last Night
EXTD=
EXTT0=
EXTT1=
EXTT2=
EXTT3=
EXTT4=
EXTT5=
EXTT6=
EXTT7=
EXTT8=
EXTT9=
EXTT10=
EXTT11=
EXTT12=
EXTT13=
PLAYORDER=
